<svg width="22" height="22" viewBox="0 0 22 22" fill="none" xmlns="http://www.w3.org/2000/svg">
<path d="M20 18.927C20.0001 18.7862 19.973 18.6467 19.9201 18.5165C19.8672 18.3864 19.7897 18.2681 19.6919 18.1685L15.2648 13.6284C16.3769 12.1088 16.8833 10.2172 16.6822 8.33339C16.481 6.44954 15.5873 4.71288 14.1804 3.47205C12.7735 2.23123 10.9577 1.5781 9.09733 1.6438C7.23699 1.7095 5.46993 2.48915 4.1509 3.82624C2.83656 5.16856 2.06978 6.96739 2.00453 8.86149C1.93929 10.7556 2.58041 12.6047 3.79916 14.0374C5.0179 15.4702 6.72401 16.3805 8.57485 16.5855C10.4257 16.7905 12.2842 16.2751 13.7771 15.1428L18.2017 19.6856C18.349 19.8357 18.5367 19.9379 18.7411 19.9794C18.9455 20.0208 19.1574 19.9996 19.35 19.9183C19.5425 19.8371 19.7071 19.6996 19.8228 19.5231C19.9385 19.3466 20.0002 19.1392 20 18.927ZM4.09561 9.13337C4.09561 8.07312 4.40445 7.03667 4.98309 6.1551C5.56172 5.27353 6.38416 4.58643 7.34639 4.18069C8.30863 3.77495 9.36744 3.66879 10.3889 3.87564C11.4105 4.08248 12.3488 4.59304 13.0852 5.34275C13.8217 6.09247 14.3232 7.04766 14.5264 8.08754C14.7296 9.12743 14.6253 10.2053 14.2268 11.1848C13.8282 12.1644 13.1532 13.0016 12.2872 13.5907C11.4212 14.1797 10.4031 14.4941 9.3616 14.4941C8.66918 14.4973 7.983 14.3608 7.34269 14.0926C6.70237 13.8243 6.12061 13.4295 5.63099 12.9311C5.14137 12.4327 4.7536 11.8405 4.49007 11.1886C4.22654 10.5368 4.09247 9.83825 4.09561 9.13337Z" fill="#7D888C"/>
</svg>
